<svg width="351" height="151" viewBox="0 0 351 151" fill="none" xmlns="http://www.w3.org/2000/svg">
<path d="M3.7605 47.7628V75.4828L27.7545 61.6318L3.7605 47.7628Z" stroke="#E60000" stroke-width="4.5" stroke-linecap="round" stroke-linejoin="round"/>
<path d="M3.7605 47.7629L27.7545 33.9119L75.7605 61.6319L27.7545 89.3429L3.7605 75.4919L27.7545 61.6409L3.7605 47.7629Z" stroke="#E60000" stroke-width="4.5" stroke-linecap="round" stroke-linejoin="round"/>
<path d="M3.7605 75.4828V103.203L27.7545 117.054V89.3339L3.7605 75.4828Z" stroke="#E60000" stroke-width="4.5" stroke-linecap="round" stroke-linejoin="round"/>
<path d="M27.7545 117.054L75.7605 89.3339V61.6229L27.7545 89.3339V117.054Z" stroke="#E60000" stroke-width="4.5" stroke-linecap="round" stroke-linejoin="round"/>
<path d="M147.76 47.7628V75.4828L123.766 61.6318L147.76 47.7718V47.7628Z" stroke="#E60000" stroke-width="4.5" stroke-linecap="round" stroke-linejoin="round"/>
<path d="M147.76 47.7629L123.766 33.9119L75.7605 61.6319L123.766 89.3429L147.76 75.4919L123.766 61.6409L147.76 47.7809V47.7629Z" stroke="#E60000" stroke-width="4.5" stroke-linecap="round" stroke-linejoin="round"/>
<path d="M147.76 75.4828V103.203L123.766 117.054V89.3339L147.76 75.4828Z" stroke="#E60000" stroke-width="4.5" stroke-linecap="round" stroke-linejoin="round"/>
<path d="M123.766 117.054L75.7605 89.3339V61.6229L123.766 89.3339V117.054Z" stroke="#E60000" stroke-width="4.5" stroke-linecap="round" stroke-linejoin="round"/>
<path d="M178.838 57.8582H184.296V85.0616L182.375 81.874C183.045 82.1942 183.627 82.4417 184.122 82.6163C184.646 82.791 185.126 82.922 185.563 83.0093C185.999 83.0675 186.436 83.0967 186.873 83.0967C188.008 83.0967 188.983 82.8347 189.798 82.3107C190.613 81.7576 191.239 80.9716 191.676 79.9528C192.142 78.9339 192.374 77.7113 192.374 76.2849C192.374 74.2472 191.923 72.6316 191.021 71.4381C190.118 70.2446 188.896 69.6478 187.353 69.6478C186.713 69.6478 186.101 69.7351 185.519 69.9098C184.937 70.0845 184.296 70.3756 183.598 70.7831V66.4603C185.17 65.7034 186.844 65.325 188.619 65.325C190.482 65.325 192.098 65.7762 193.466 66.6786C194.834 67.5519 195.882 68.8036 196.61 70.4338C197.367 72.0348 197.745 73.927 197.745 76.1102C197.745 78.4099 197.294 80.4185 196.392 82.136C195.518 83.8244 194.281 85.1344 192.68 86.0659C191.079 86.9683 189.187 87.4195 187.004 87.4195C185.49 87.4195 184.034 87.2739 182.637 86.9828C181.269 86.6917 180.003 86.2842 178.838 85.7602V57.8582ZM207.366 86.9828H201.907V65.8053H206.754L207.366 69.1238V86.9828ZM206.58 68.5562C207.453 67.5082 208.384 66.7223 209.374 66.1983C210.364 65.6452 211.354 65.3686 212.343 65.3686C212.693 65.3686 213.071 65.4123 213.479 65.4996C213.886 65.5579 214.25 65.6306 214.57 65.718L213.915 70.4338C213.624 70.3465 213.319 70.2882 212.998 70.2591C212.707 70.2009 212.416 70.1718 212.125 70.1718C211.194 70.1718 210.277 70.4338 209.374 70.9578C208.472 71.4526 207.613 72.1949 206.798 73.1847L206.58 68.5562ZM217.131 65.8053H222.589V86.9828H217.131V65.8053ZM216.825 60.3908C216.825 59.5466 217.101 58.8625 217.655 58.3386C218.208 57.7855 218.95 57.5089 219.881 57.5089C220.813 57.5089 221.555 57.7855 222.108 58.3386C222.661 58.8625 222.938 59.5466 222.938 60.3908C222.938 61.235 222.661 61.9191 222.108 62.4431C221.555 62.938 220.813 63.1854 219.881 63.1854C218.95 63.1854 218.208 62.938 217.655 62.4431C217.101 61.9191 216.825 61.235 216.825 60.3908ZM233.556 78.3372L225.172 65.8053H231.242L236.481 74.451H233.949L239.232 65.8053H244.909L236.787 78.1625V74.058L245.258 86.9828H239.189L233.818 77.9878L236.35 78.0315L230.892 86.9828H225.085L233.556 74.2763V78.3372ZM262.376 53.7974L264.603 55.1074L247.443 87.5942L245.259 86.1532L262.376 53.7974ZM268.244 86.9828H265.581V66.1546H267.939L268.244 68.9055V86.9828ZM267.546 68.8618C268.681 67.7266 269.714 66.9115 270.646 66.4166C271.577 65.8926 272.494 65.6306 273.397 65.6306C273.688 65.6306 274.008 65.6597 274.357 65.718C274.707 65.7471 275.071 65.8053 275.449 65.8926L275.1 68.5125C274.838 68.4252 274.576 68.367 274.314 68.3379C274.052 68.2796 273.804 68.2505 273.571 68.2505C272.611 68.2505 271.621 68.5271 270.602 69.0802C269.612 69.6333 268.637 70.4483 267.677 71.5254L267.546 68.8618ZM277.114 76.5032C277.114 74.2909 277.463 72.3842 278.162 70.7831C278.89 69.1529 279.909 67.8867 281.219 66.9842C282.529 66.0818 284.057 65.6306 285.803 65.6306C288.452 65.6306 290.519 66.5913 292.004 68.5125C293.518 70.4047 294.274 73.0391 294.274 76.4159H278.686V74.1017H291.917L291.393 74.975C291.393 72.8499 290.883 71.147 289.864 69.8661C288.845 68.5853 287.492 67.9449 285.803 67.9449C283.882 67.9449 282.398 68.6726 281.35 70.1281C280.331 71.5836 279.821 73.6941 279.821 76.4596C279.821 79.2832 280.389 81.4374 281.524 82.922C282.66 84.4066 284.304 85.1489 286.458 85.1489C287.652 85.1489 288.773 84.9306 289.821 84.4939C290.869 84.0573 291.815 83.4023 292.659 82.529L293.445 84.7996C292.601 85.6438 291.538 86.2988 290.257 86.7645C288.976 87.2303 287.608 87.4632 286.153 87.4632C283.329 87.4632 281.117 86.5025 279.516 84.5813C277.915 82.6309 277.114 79.9382 277.114 76.5032ZM308.686 72.879C308.686 71.1615 308.322 69.9098 307.595 69.1238C306.867 68.3379 305.804 67.9449 304.407 67.9449C303.505 67.9449 302.573 68.1195 301.613 68.4689C300.652 68.8182 299.706 69.3567 298.774 70.0845L297.857 67.9885C298.381 67.5519 298.978 67.1589 299.648 66.8096C300.346 66.4603 301.103 66.1837 301.918 65.98C302.762 65.7471 303.65 65.6306 304.582 65.6306C306.765 65.6306 308.439 66.2274 309.603 67.4209C310.768 68.5853 311.35 70.4483 311.35 73.01V86.9828H308.948L308.686 83.6643V72.879ZM309.254 75.7173C305.79 75.7755 303.257 76.2412 301.656 77.1145C300.055 77.9587 299.255 79.2832 299.255 81.0881C299.255 81.9614 299.458 82.7037 299.866 83.315C300.273 83.8972 300.797 84.3484 301.438 84.6686C302.107 84.9888 302.806 85.1489 303.534 85.1489C304.611 85.1489 305.63 84.8869 306.59 84.3629C307.551 83.839 308.381 83.184 309.079 82.398L309.167 84.7559C308.439 85.6292 307.566 86.2988 306.547 86.7645C305.528 87.2303 304.422 87.4632 303.228 87.4632C302.006 87.4632 300.885 87.2157 299.866 86.7209C298.876 86.1969 298.076 85.4546 297.464 84.4939C296.853 83.5333 296.547 82.3835 296.547 81.0444C296.547 78.5992 297.654 76.7216 299.866 75.4116C302.078 74.0725 305.208 73.403 309.254 73.403V75.7173ZM316.174 76.5906C316.174 74.058 316.596 71.9912 317.44 70.3901C318.284 68.76 319.376 67.5664 320.715 66.8096C322.054 66.0236 323.466 65.6306 324.951 65.6306C326.406 65.6306 327.614 65.8781 328.575 66.3729C329.564 66.8678 330.35 67.45 330.933 68.1195C331.515 68.7891 331.937 69.4004 332.199 69.9535L330.321 71.3508C329.623 70.2737 328.88 69.444 328.094 68.8618C327.308 68.2505 326.275 67.9449 324.994 67.9449C323.83 67.9449 322.782 68.2942 321.85 68.9928C320.919 69.6915 320.176 70.6958 319.623 72.0057C319.099 73.2866 318.837 74.8003 318.837 76.5469C318.837 79.1959 319.449 81.2918 320.671 82.8347C321.923 84.3775 323.495 85.1489 325.387 85.1489C326.61 85.1489 327.658 84.9451 328.531 84.5376C329.404 84.1301 330.249 83.5188 331.064 82.7037L331.937 85.0179C331.267 85.6875 330.35 86.2697 329.186 86.7645C328.022 87.2303 326.697 87.4632 325.212 87.4632C323.582 87.4632 322.083 87.0556 320.715 86.2405C319.347 85.4255 318.241 84.2174 317.396 82.6163C316.581 80.9862 316.174 78.9776 316.174 76.5906ZM337.89 82.66V60.5218H340.554V82.398C340.554 83.3586 340.728 84.0573 341.078 84.4939C341.427 84.9306 341.98 85.1489 342.737 85.1489C343.523 85.1489 344.425 84.7996 345.444 84.101L346.317 86.1532C345.182 87.0265 343.828 87.4632 342.257 87.4632C340.83 87.4632 339.739 87.0556 338.982 86.2405C338.254 85.3964 337.89 84.2028 337.89 82.66ZM334.484 66.1546H345.75V68.4689H334.484V66.1546Z" fill="black"/>
</svg>
